<svg
   xmlns:dc="http://purl.org/dc/elements/1.1/"
   xmlns:cc="http://creativecommons.org/ns#"
   xmlns:rdf="http://www.w3.org/1999/02/22-rdf-syntax-ns#"
   xmlns:svg="http://www.w3.org/2000/svg"
   xmlns="http://www.w3.org/2000/svg"
   version="1.0"
   width="7.4990449in"
   viewBox="0 0 190.47574 275.59781"
   height="10.850307in"
   id="svg2">
  
  
  <defs
     id="defs4">
    <clipPath
       clipPathUnits="userSpaceOnUse"
       id="clipWmfPath1">
      <path
         d="M 31.226,53.268 631.126,0 V 901.69 H -0.004 Z"
         id="path7" />
    </clipPath>
    <linearGradient
       x1="303.87"
       y1="92.764"
       x2="301.75"
       gradientUnits="userSpaceOnUse"
       y2="808.35999"
       id="linearGradient4247">
      <stop
         offset="0"
         stop-color="#c2b294"
         id="stop4191" />
      <stop
         offset=".071429"
         stop-color="#c7b89b"
         id="stop4193" />
      <stop
         offset=".14286"
         stop-color="#cbc1a3"
         id="stop4195" />
      <stop
         offset=".21429"
         stop-color="#d2c8ad"
         id="stop4197" />
      <stop
         offset=".28571"
         stop-color="#d8cfb6"
         id="stop4199" />
      <stop
         offset=".35714"
         stop-color="#d9d2b8"
         id="stop4201" />
      <stop
         offset=".42857"
         stop-color="#d9d2b8"
         id="stop4203" />
      <stop
         offset=".5"
         stop-color="#d9d2b8"
         id="stop4205" />
      <stop
         offset=".57143"
         stop-color="#d9d2b8"
         id="stop4207" />
      <stop
         offset=".64286"
         stop-color="#d6cfb5"
         id="stop4209" />
      <stop
         offset=".71429"
         stop-color="#d3c8ad"
         id="stop4211" />
      <stop
         offset=".78571"
         stop-color="#cdc1a6"
         id="stop4213" />
      <stop
         offset=".85714"
         stop-color="#c7b79c"
         id="stop4215" />
      <stop
         offset=".92857"
         stop-color="#bfad8f"
         id="stop4217" />
      <stop
         offset="1"
         stop-color="#bbac89"
         id="stop4219" />
    </linearGradient>
    <filter
       x="0"
       y="0"
       width="1"
       height="1"
       style="color-interpolation-filters:sRGB"
       id="filter4225">
      <feTurbulence
         baseFrequency="0.05"
         result="result91"
         type="fractalNoise"
         numOctaves="5"
         id="feTurbulence4227" />
      <feDisplacementMap
         in="SourceGraphic"
         xChannelSelector="R"
         result="result5"
         in2="result91"
         yChannelSelector="A"
         scale="1.5"
         id="feDisplacementMap4229" />
      <feComposite
         in="SourceGraphic"
         in2="result5"
         operator="atop"
         id="feComposite4231" />
    </filter>
    <filter
       height="1.1"
       width="1.1"
       y="-0.050000001"
       x="-0.050000001"
       id="filter5465-0"
       style="color-interpolation-filters:sRGB">
      <feGaussianBlur
         id="feGaussianBlur5467-3"
         result="result0"
         in="SourceGraphic"
         stdDeviation="6" />
      <feDiffuseLighting
         id="feDiffuseLighting5469-2"
         result="result5"
         surfaceScale="4"
         diffuseConstant="1"
         lighting-color="#fbc0c0">
        <feDistantLight
           id="feDistantLight5471-1"
           azimuth="235"
           elevation="45" />
      </feDiffuseLighting>
      <feComposite
         k4="0"
         k3="0"
         k2="0"
         id="feComposite5473-1"
         operator="arithmetic"
         result="fbSourceGraphic"
         in="result5"
         in2="SourceGraphic"
         k1="1.4" />
      <feGaussianBlur
         id="feGaussianBlur5475-4"
         stdDeviation="6"
         in="fbSourceGraphic"
         result="result0" />
      <feSpecularLighting
         id="feSpecularLighting5477-6"
         in="result0"
         result="result1"
         lighting-color="#f6cece"
         surfaceScale="4"
         specularConstant="1"
         specularExponent="25">
        <feDistantLight
           id="feDistantLight5479-5"
           elevation="45"
           azimuth="235" />
      </feSpecularLighting>
      <feComposite
         k4="0"
         k1="0"
         id="feComposite5481-0"
         result="result4"
         in2="result1"
         in="fbSourceGraphic"
         operator="arithmetic"
         k2="1"
         k3="1" />
      <feComposite
         id="feComposite5483-7"
         in="result4"
         in2="SourceGraphic"
         result="result2"
         operator="in" />
    </filter>
    <filter
       id="filter5445"
       style="color-interpolation-filters:sRGB">
      <feGaussianBlur
         id="feGaussianBlur5447"
         result="result0"
         in="SourceGraphic"
         stdDeviation="6" />
      <feDiffuseLighting
         id="feDiffuseLighting5449"
         result="result5"
         surfaceScale="4"
         diffuseConstant="1"
         lighting-color="#f1bdbd">
        <feDistantLight
           id="feDistantLight5451"
           azimuth="235"
           elevation="45" />
      </feDiffuseLighting>
      <feComposite
         k4="0"
         k3="0"
         k2="0"
         id="feComposite5453"
         operator="arithmetic"
         result="fbSourceGraphic"
         in="result5"
         in2="SourceGraphic"
         k1="1.4" />
      <feGaussianBlur
         id="feGaussianBlur5455"
         stdDeviation="6"
         in="fbSourceGraphic"
         result="result0" />
      <feSpecularLighting
         id="feSpecularLighting5457"
         in="result0"
         result="result1"
         lighting-color="#ffb6b6"
         surfaceScale="4"
         specularConstant="1"
         specularExponent="25">
        <feDistantLight
           id="feDistantLight5459"
           elevation="45"
           azimuth="235" />
      </feSpecularLighting>
      <feComposite
         k4="0"
         k1="0"
         id="feComposite5461"
         result="result4"
         in2="result1"
         in="fbSourceGraphic"
         operator="arithmetic"
         k2="1"
         k3="1" />
      <feComposite
         id="feComposite5463"
         in="result4"
         in2="SourceGraphic"
         result="result2"
         operator="in" />
    </filter>
  </defs>
  <g
     style="stroke-width:1.0182668"
     transform="matrix(0.93501891,0,0,1.0314696,-5.6992403,-6.2947468)"
     id="g889">
    <path
       style="fill:url(#linearGradient4247);fill-rule:evenodd;stroke:#713020;stroke-width:1.32639432;stroke-linecap:round;stroke-linejoin:round"
       transform="matrix(-0.38872983,0,0,0.36982109,233.23083,-27.266)"
       clip-path="url(#clipWmfPath1)"
       d="m 72.541,159.25 1.3121,-10.692 3.1866,-13.13 2.6242,-10.88 c 0,0 2.2129,-7.3644 3.7489,-10.879 1.1649,-2.6655 2.2108,-5.4995 4.1238,-7.691 3.3149,-3.7975 7.5879,-6.9397 12.24,-8.8808 9.9607,-4.1562 21.213,-4.1568 31.95,-5.2522 7.1697,-0.73144 14.398,-0.72771 21.603,-0.87328 8.8082,-0.17796 26.43,0 26.43,0 h 43.487 330.68 c 0,0 6.3723,-0.11696 9.2015,1.1255 2.6244,1.1525 4.6487,3.4282 6.5443,5.5782 3.2314,3.6651 6.1208,7.7642 8.0364,12.259 2.597,6.094 3.4975,12.813 4.4422,19.37 1.0273,7.1303 1.0932,14.371 1.312,21.572 0.20886,6.8745 0.2579,13.76 0,20.633 -0.31272,8.3336 -0.74551,16.685 -1.875,24.948 -0.7663,5.6056 -1.6159,11.25 -3.3172,16.646 -1.8615,5.9043 -3.9275,11.928 -7.4734,17.002 -2.0301,2.9053 -4.3812,6.0418 -7.6693,7.365 -3.5412,1.425 -11.452,0 -11.452,0 l -21.206,-3.377 2.625,31.514 2.811,17.257 5.249,28.324 2.437,11.818 2.624,22.884 1.874,18.383 1.687,28.324 0.75,17.258 0.562,34.702 v 18.382 l -0.749,22.885 -0.938,6.565 -2.811,39.954 -2.999,24.948 -2.812,17.445 -4.874,21.759 -5.061,19.321 -2.249,16.319 -2.249,20.634 -0.75,7.691 c 0,0 -2.7652,6.7687 -0.563,8.628 6.7392,5.6898 16.957,-6.9153 25.741,-6.1255 1.087,0.0977 2.079,0.72684 2.999,1.314 3.4686,2.2137 6.9124,4.7859 9.255,8.1688 2.427,3.5047 3.1676,7.9196 4.5492,11.952 1.6336,4.7686 3.181,9.5758 4.417,14.463 1.2668,5.009 2.3933,10.071 3.0646,15.194 0.65936,5.0313 0.66377,10.127 0.937,15.194 0.39341,7.2958 1.369,14.598 1.0112,21.896 -0.42879,8.7472 -1.7556,17.479 -3.7732,26.001 -1.1663,4.9263 -2.3086,9.9995 -4.7894,14.412 -1.7416,3.0981 -4.4208,5.5817 -6.8968,8.1315 -1.9602,2.0186 -4.0304,3.9493 -6.2746,5.6466 -1.5904,1.2028 -3.1896,2.5007 -5.061,3.189 -3.574,1.3145 -7.5097,1.3523 -11.308,1.6235 -59.83,4.2731 -179.95,0 -179.95,0 h -241.43 l -12.934,-2.064 -13.121,-4.502 -9.7472,-6.377 -8.6224,-10.88 -5.8108,-15.194 -5.2485,-36.953 -1.1247,-28.137 1.1247,-18.57 4.4987,-43.143 4.3112,-26.073 3.7489,-13.131 6.5606,-30.388 5.061,-35.64 1.687,-15.194 2.8117,-59.65 v -22.697 l -0.9372,-36.015 -1.8745,-27.011 -1.3121,-17.257 -4.4987,-33.765 -2.6242,-13.13 -6.748,-33.389 -2.6243,-19.696 -1.8744,-24.948 -0.3749,-27.199 3.374,-44.268 z"
       id="path14" />
    <g
       style="fill:none;stroke:#713020;stroke-width:1.0182668;stroke-linecap:round;stroke-linejoin:round"
       id="g4093"
       transform="matrix(1.3774,0,0,1.3104,-17.332,-27.266)">
      <path
         style="stroke-width:1.32639432;filter:url(#filter4225)"
         transform="matrix(-0.28222,0,0,0.28222,181.91,0)"
         clip-path="url(#clipWmfPath1)"
         d="m 550.06,91.01 -3.2851,3.1546 -1.312,1.6882 -1.312,2.0634 -1.125,2.2509 -1.312,2.814 -1.125,3.001 -1.124,3.376 -1.125,3.752 -1.125,4.127 -0.937,4.126 -0.937,4.69 -0.937,4.689 -0.75,5.065 -0.75,5.252 -0.75,5.44 -0.562,5.815 -0.562,5.815 -0.563,5.815 -0.375,6.19 -0.374,6.19 -0.375,6.378 -0.188,6.377 -0.187,6.378 v 6.378 6.565 l 0.187,6.378 0.188,6.377 0.187,6.378 0.375,6.19"
         id="path20" />
      <path
         style="stroke-width:1.32639432;filter:url(#filter4225)"
         transform="matrix(-0.28222,0,0,0.28222,181.91,0)"
         clip-path="url(#clipWmfPath1)"
         d="m 539.67,191.38 c 0.64045,2.1596 1.2205,6.7324 3.5153,8.986 1.9003,1.8662 4.8511,3.1167 7.4927,2.776 1.4818,-0.19113 2.549,-1.5852 3.6702,-2.5727 2.8084,-2.4734 4.7501,-5.5619 5.9349,-8.2196 1.7422,-3.9083 2.2743,-9.2557 2.1709,-14.529 -0.0794,-4.0503 0.32079,-8.1066 0.11928,-12.153 -0.19099,-3.8348 -0.53518,-7.6788 -1.257,-11.45 -0.53277,-2.7836 -0.78479,-5.7762 -2.2586,-8.197 -1.4566,-2.3924 -3.5539,-4.7062 -6.1717,-5.7022 -2.3274,-0.88555 -5.2699,-1.0279 -7.4692,0.13991 -1.7013,0.90341 -2.5013,2.985 -3.3259,4.7259 -1.6026,3.3834 -2.245,7.1555 -3.0116,10.82 -0.60422,2.8882 -0.89293,5.9284 -1.2439,8.7642"
         id="path22" />
      <path
         style="stroke-width:1.32048845;filter:url(#filter4225)"
         transform="matrix(-0.28222,0,0,0.28473,181.91,-0.41178)"
         clip-path="url(#clipWmfPath1)"
         d="m 537.78,163.94 v 4.877 l -0.188,4.877 v 4.877 l 0.188,5.065 0.187,4.689 0.375,4.877 0.375,4.69 0.562,4.501 0.563,4.315 0.749,4.127 0.75,3.751 0.937,3.752 0.938,3.376 0.937,3.001 0.937,2.814 1.125,2.439 1.124,2.063 1.313,1.688 1.124,1.313 1.312,1.126 1.125,0.562 1.312,0.188"
         id="path24" />
      <g
         style="stroke-width:1.32639432"
         id="g4091">
        <path
           style="stroke-width:1.32639432;filter:url(#filter4225)"
           transform="matrix(-0.28222,0,0,0.28222,181.91,0)"
           clip-path="url(#clipWmfPath1)"
           d="m 525.03,669.66 c -0.14731,6.9234 -0.72204,13.827 -0.60284,20.755 -0.3908,11.581 0.15192,23.171 0.63475,34.74 0.66561,13.703 1.7992,27.388 3.9357,40.947 1.8588,11.759 4.3976,23.504 8.9076,34.557 1.8232,3.7298 4.0127,7.0753 7.8721,9.0429"
           id="path28" />
        <path
           style="stroke-width:1.32639432;filter:url(#filter4225)"
           transform="matrix(-0.28222,0,0,0.28222,181.91,0)"
           clip-path="url(#clipWmfPath1)"
           d="m 548.06,663.43 -2.22,1.2731 -1.125,0.75 -0.937,0.938 -0.937,2.1425 -0.75,1.875 -0.937,2.251 -0.937,2.439 -0.75,3.001 -0.75,3.189 -0.75,3.564 -0.75,3.752 -0.562,4.126 -0.75,4.315 -0.562,4.689 -0.375,4.69 -0.562,5.064 -0.375,5.252 -0.188,5.253 -0.375,5.439 -0.187,5.628 v 5.627"
           id="path30" />
        <path
           style="stroke-width:1.32639432;filter:url(#filter4225)"
           transform="matrix(-0.28222,0,0,0.28222,181.91,0)"
           clip-path="url(#clipWmfPath1)"
           d="m 533.03,737.5 c 0.39596,3.8789 0.71538,7.6257 1.5827,11.432 0.47401,2.7264 1.1976,5.413 2.4633,7.8862 0.613,2.0662 2.0469,3.8096 3.8245,4.9885 2.0652,2.4407 10.16,1.9888 10.861,-0.65977 2.2611,-2.6913 3.081,-6.2059 4.1013,-9.4898 1.1846,-4.3398 1.3737,-8.8672 1.9531,-13.312 0.25627,-3.9106 0.25301,-7.8391 0.0971,-11.753 -0.16364,-3.9318 -0.43227,-7.8692 -1.2969,-11.719 -0.61846,-3.3613 -1.1939,-6.7919 -2.7874,-9.8552 -0.81948,-2.281 -3.7801,-4.7537 -6.2593,-5.5021 -1.0363,-0.40983 -6.5669,-0.87912 -7.4212,-0.29744 -1.5828,1.2072 -2.4947,3.0056 -3.2158,4.8174 -0.6038,1.1835 -1.6368,3.0805 -2.0483,4.3394"
           id="path32" />
      </g>
    </g>
    <g
       style="fill:#411000;fill-rule:evenodd;stroke-width:1.0182668"
       id="g4099"
       transform="matrix(1.3774,0,0,1.3104,-17.332,-27.266)">
      <path
         style="opacity:0.25;stroke-width:1.0182668;filter:url(#filter4225)"
         d="m 28.842,227.49 c 0.81319,-0.9001 0.95781,-1.1736 1.5991,-3.0244 1.6261,-4.693 2.6253,-11.146 3.1102,-20.085 0.20539,-3.7868 0.24535,-11.682 0.06967,-13.764 l -0.11444,-1.3564 -0.84777,0.056 c -0.68809,0.0454 -1.1373,-0.0851 -2.3849,-0.69281 -0.8454,-0.41183 -1.5678,-0.71811 -1.6052,-0.68062 -0.03749,0.0375 0.17568,0.65949 0.4737,1.3822 1.1883,2.8816 2.0597,8.7413 2.3616,15.881 0.29708,7.0254 -0.92222,10.355 -3.7918,10.355 -0.88696,0 -1.0503,-0.0643 -1.574,-0.61956 -2.5194,-2.6714 -2.4832,-14.747 0.0512,-17.038 0.49536,-0.44799 1.613,-0.83514 2.4398,-0.84511 0.75227,-0.009 1.2938,0.36588 1.709,1.1833 l 0.27929,0.54984 0.0011,-0.59869 c 5.65e-4,-0.32928 -0.16734,-1.6489 -0.37324,-2.9325 -0.90531,-5.6434 -1.945,-7.9238 -3.6127,-7.9238 -0.89782,0 -3.0977,1.7426 -3.7019,2.9325 -0.43643,0.85941 -1.9055,5.5322 -2.4627,7.8337 -0.54501,2.2508 -0.76512,4.1362 -1.0486,8.9814 -0.22805,3.8984 -0.14757,6.413 0.2923,9.1327 0.41656,2.5755 1.3027,5.8474 1.8619,6.8749 0.63641,1.1693 3.3297,3.8802 4.5558,4.5855 1.2944,0.74465 1.9099,0.70238 2.7127,-0.18627 z"
         id="path4180" />
      <path
         style="opacity:0.35;stroke-width:1.0182668;filter:url(#filter4225)"
         d="m 29.205,214.8 c 1.6674,-1.2436 2.2511,-5.2653 1.7935,-12.355 -0.1375,-2.1301 -0.21534,-2.5129 -0.71023,-3.4933 -0.74856,-1.4829 -0.93286,-1.6124 -2.0984,-1.4743 -2.1506,0.25471 -2.9251,1.6636 -3.4521,6.2801 -0.46018,4.0308 0.3936,9.6606 1.6734,11.034 0.51295,0.55059 2.0607,0.55519 2.794,0.008 z"
         id="path4182" />
      <path
         style="opacity:0.25;stroke-width:1.0182668;filter:url(#filter4225)"
         d="m 26.221,66.683 c 0.62042,-0.31311 1.5768,-1.9592 2.0454,-3.5206 0.58083,-1.9352 1.2164,-5.2325 1.3347,-6.9243 0.10483,-1.4991 0.10398,-1.503 -0.17461,-0.78158 -0.34935,0.90466 -0.92345,1.539 -1.6876,1.8646 -1.057,0.45039 -1.4628,0.33033 -2.5465,-0.75339 -1.8973,-1.8973 -2.3879,-3.902 -2.2208,-9.075 0.14705,-4.5518 0.66151,-6.4795 2.0234,-7.5818 0.77841,-0.63003 2.2836,-0.84984 3.048,-0.44512 1.0585,0.56047 1.9289,3.4624 2.2308,7.4379 0.52038,6.8518 -0.99593,16.849 -2.8985,19.11 -0.25672,0.3051 -0.43588,0.58328 -0.39814,0.61818 0.10644,0.09843 5.0857,-0.72785 5.2249,-0.86705 0.2226,-0.2226 0.16003,-14.939 -0.07614,-17.906 -0.59976,-7.5353 -1.5339,-13.414 -2.6945,-16.957 -0.76918,-2.3481 -1.2064,-3.2095 -2.1471,-4.23 -0.6997,-0.75909 -0.80084,-0.80654 -1.7191,-0.80654 -1.8848,0 -2.7469,0.30703 -3.7771,1.3453 -2.076,2.092 -3.1473,4.3133 -3.7268,7.727 -0.92919,5.4733 -0.78975,16.948 0.27728,22.818 0.72029,3.9624 2.7362,8.0286 4.4095,8.8938 0.64539,0.33374 2.8362,0.35486 3.473,0.03347 z"
         id="path4184" />
      <path
         style="opacity:0.35;stroke-width:1.0182668;filter:url(#filter4225)"
         d="m 27.683,56.885 c 0.78248,-0.39314 1.3985,-1.28 1.5622,-2.2492 0.12795,-0.75732 0.38044,-0.96379 0.49908,-0.40811 0.03766,0.17641 0.12041,-0.83392 0.18388,-2.2452 0.25287,-5.6222 -0.52988,-10.66 -1.8636,-11.993 -0.79145,-0.79145 -2.5932,-0.30896 -3.495,0.93591 -0.67579,0.9329 -1.0862,3.1384 -1.222,6.5671 -0.19177,4.8412 0.41676,7.2885 2.2272,8.9573 0.91483,0.84326 1.1853,0.89912 2.1082,0.43545 z"
         id="path4186" />
    </g>
  </g>
 
  
  <g
     style="stroke-width:3.60247517"
     id="g1581"
     transform="matrix(0.0760827,0,0,0.07089851,89.011569,236.01329)">
    <path
       id="path5156"
       d="m 64,616.36218 c -3.28428,18.89489 -16.743402,34.54915 -23.787744,52.38677 -6.937682,17.56754 -7.438723,38.11972 -18.146239,53.67925 -10.713649,15.56844 -25.9745165,29.53556 -43.679248,36.14624 -23.860228,8.90905 -50.965416,0.22683 -76.386769,1.78774 -20.85915,1.28078 -42.95968,13.91504 -62.38677,6.21226 -20.60666,-8.17048 -25.82659,-37.0057 -43.67925,-50.14624 -11.7761,-8.66786 -31.89713,-5.60611 -40.14624,-17.67925 -16.63638,-24.3485 -0.12555,-59.12575 -3.78774,-88.38677 -2.46926,-19.7295 -18.66079,-39.57808 -12.21226,-58.38677 7.96301,-23.226 41.64174,-27.86823 56.14624,-47.67925 8.99973,-12.2923 5.07908,-33.58286 17.67925,-42.14624 24.37236,-16.56404 59.16943,2.04982 88.38677,-1.78774 30.761148,-4.04033 63.913257,-38.39019 90.3867693,-22.21226 19.3352267,11.81574 3.7380057,46.88827 15.6792479,66.14624 C 19.520105,522.76848 48.181245,526.69325 58.212256,545.97541 69.076821,566.85987 68.031487,593.1685 64,616.36218 Z"
       style="opacity:1;fill:#f30000;fill-opacity:1;stroke:none;stroke-width:10.8074255;stroke-linecap:round;stroke-linejoin:round;stroke-miterlimit:4;stroke-dasharray:none;stroke-opacity:1;filter:url(#filter5465-0)"
       transform="matrix(1.2970252,0,0,1.2960301,382.87186,-540.55587)" />
    <ellipse
       ry="6.7119198"
       rx="6.717073"
       style="opacity:1;fill:#f30000;fill-opacity:1;stroke:none;stroke-width:12.09440231;stroke-linecap:round;stroke-linejoin:round;stroke-miterlimit:4;stroke-dasharray:none;stroke-opacity:1"
       id="path5534"
       cx="99.076836"
       cy="424.0639" />
    <ellipse
       style="opacity:1;fill:#f30000;fill-opacity:1;stroke:none;stroke-width:10.8074255;stroke-linecap:round;stroke-linejoin:round;stroke-miterlimit:4;stroke-dasharray:none;stroke-opacity:1"
       id="path5536"
       cx="491.89944"
       cy="162.30643"
       rx="5.0378051"
       ry="8.3899002"
       transform="rotate(45.853432)" />
    <ellipse
       style="opacity:1;fill:#f30000;fill-opacity:1;stroke:none;stroke-width:12.09440231;stroke-linecap:round;stroke-linejoin:round;stroke-miterlimit:4;stroke-dasharray:none;stroke-opacity:1"
       id="path5538"
       cx="39.18293"
       cy="360.85999"
       rx="5.0378051"
       ry="7.2712464" />
    <ellipse
       style="opacity:1;fill:#f30000;fill-opacity:1;stroke:none;stroke-width:10.8074255;stroke-linecap:round;stroke-linejoin:round;stroke-miterlimit:4;stroke-dasharray:none;stroke-opacity:1"
       id="path5540"
       cx="52.886635"
       cy="126.03909"
       rx="4.4780488"
       ry="8.3899002"
       transform="rotate(-17.248941)" />
    <ellipse
       style="opacity:1;fill:#f30000;fill-opacity:1;stroke:none;stroke-width:10.8074255;stroke-linecap:round;stroke-linejoin:round;stroke-miterlimit:4;stroke-dasharray:none;stroke-opacity:1"
       id="path5542"
       cx="-113.62266"
       cy="198.06705"
       rx="5.0378051"
       ry="2.7966332"
       transform="rotate(-36.881456)" />
    <ellipse
       style="opacity:1;fill:#f30000;fill-opacity:1;stroke:none;stroke-width:12.09440231;stroke-linecap:round;stroke-linejoin:round;stroke-miterlimit:4;stroke-dasharray:none;stroke-opacity:1"
       id="path5544"
       cx="404.14392"
       cy="85.671272"
       rx="6.1573172"
       ry="10.627207" />
    <ellipse
       style="opacity:1;fill:#f30000;fill-opacity:1;stroke:none;stroke-width:12.09440231;stroke-linecap:round;stroke-linejoin:round;stroke-miterlimit:4;stroke-dasharray:none;stroke-opacity:1"
       id="path5546"
       cx="474.11343"
       cy="292.06281"
       rx="7.8365855"
       ry="6.7119198" />
    <ellipse
       style="opacity:1;fill:#f30000;fill-opacity:1;stroke:none;stroke-width:12.09440231;stroke-linecap:round;stroke-linejoin:round;stroke-miterlimit:4;stroke-dasharray:none;stroke-opacity:1"
       id="path5548"
       cx="-452.84268"
       cy="339.04623"
       rx="2.2390244"
       ry="5.5932665"
       transform="scale(-1,1)" />
    
  </g>
</svg>
